<svg xmlns="http://www.w3.org/2000/svg" width="259.923" height="97.144" viewBox="0 0 259.923 97.144"><defs><style>.a,.b{fill:#fff;}.b{font-size:17px;font-family:OpenSans, Open Sans;letter-spacing:0.04em;}</style></defs><g transform="translate(-73 -301)"><path class="a" d="M5.76,5.544V-52H22.049l8.676,23.549q.8,2.39,1.505,4.958t1.505,5.135h.354q.8-2.567,1.505-5.135T37.1-28.451L45.421-52H61.711V5.544H47.9v-17q0-2.213.221-4.869t.487-5.445q.266-2.789.62-5.445t.62-4.781h-.354L44.713-18.182,37.631.852H29.486L22.4-18.182,17.8-31.992h-.354q.266,2.125.62,4.781t.62,5.445q.266,2.789.487,5.445t.221,4.869v17Zm68.7,0V-52H89.686v21.424h.354L104.559-52H121.2L104.028-28.628,124.567,5.544H107.923L95.175-16.588,89.686-8.8V5.544Zm63.918,0v-44.8H123.15V-52h45.681v12.748H153.6v44.8Zm38.953,0V-52h37.537v12.748H192.557v10.978H211.68v12.748H192.557V5.544Zm55.774,0V-14.286L215.752-52h16.289l4.249,12.04q1.062,3.276,2.125,6.374t2.213,6.463h.354q1.151-3.364,2.258-6.463T245.5-39.96L249.748-52h15.935L248.331-14.286V5.544Z" transform="translate(67.24 353)"/><text class="b" transform="translate(198.798 393.144)"><tspan x="-76.332" y="0">Buy and sell stuff!</tspan></text></g></svg>