<svg xmlns="http://www.w3.org/2000/svg" width="117.937" height="26.11" viewBox="0 0 117.937 26.11">
  <path id="MKTFY_wordmark" d="M5.76-25.89V-52h7.391l3.937,10.685q.362,1.085.683,2.249t.683,2.33h.161q.362-1.165.683-2.33t.683-2.249L23.756-52h7.391v26.11H24.881V-33.6q0-1,.1-2.209t.221-2.47q.121-1.265.281-2.47t.281-2.169H25.6l-2.169,6.266-3.214,8.636h-3.7l-3.214-8.636-2.089-6.266h-.161q.121.964.281,2.169t.281,2.47q.121,1.265.221,2.47t.1,2.209v7.712Zm31.171,0V-52H43.84v9.721H44L50.589-52h7.552L50.348-41.4,59.667-25.89H52.115L46.331-35.932,43.84-32.4v6.507Zm29,0V-46.216H59.024V-52H79.752v5.784H72.842V-25.89Zm17.674,0V-52H100.64v5.784H90.517v4.981h8.677v5.784H90.517v9.56Zm25.307,0v-9L101.041-52h7.391l1.928,5.463q.482,1.486.964,2.892t1,2.932h.161q.522-1.526,1.024-2.932t1.024-2.892L116.466-52h7.23l-7.873,17.112v9Z" transform="translate(-5.76 52)" fill="#fff"/>
</svg>
