<svg xmlns="http://www.w3.org/2000/svg" xmlns:xlink="http://www.w3.org/1999/xlink" width="1920" height="1080" viewBox="0 0 1920 1080">
  <defs>
    <clipPath id="clip-path">
      <rect id="Rectangle_1981" data-name="Rectangle 1981" width="1920" height="1080" fill="#6318af"/>
    </clipPath>
    <filter id="Union_5" x="-174.001" y="216" width="2601.004" height="620.002" filterUnits="userSpaceOnUse">
      <feOffset dy="3" input="SourceAlpha"/>
      <feGaussianBlur stdDeviation="10" result="blur"/>
      <feFlood flood-opacity="0.102"/>
      <feComposite operator="in" in2="blur"/>
      <feComposite in="SourceGraphic"/>
    </filter>
    <filter id="Union_4" x="-174.001" y="373" width="2601.004" height="620.002" filterUnits="userSpaceOnUse">
      <feOffset dy="3" input="SourceAlpha"/>
      <feGaussianBlur stdDeviation="10" result="blur-2"/>
      <feFlood flood-opacity="0.102"/>
      <feComposite operator="in" in2="blur-2"/>
      <feComposite in="SourceGraphic"/>
    </filter>
    <filter id="Union_3" x="-174.001" y="528" width="2601.004" height="620.002" filterUnits="userSpaceOnUse">
      <feOffset dy="3" input="SourceAlpha"/>
      <feGaussianBlur stdDeviation="10" result="blur-3"/>
      <feFlood flood-opacity="0.102"/>
      <feComposite operator="in" in2="blur-3"/>
      <feComposite in="SourceGraphic"/>
    </filter>
  </defs>
  <g id="background_begin" clip-path="url(#clip-path)">
    <rect id="Rectangle_1980" data-name="Rectangle 1980" width="1920" height="1080" fill="#6318af"/>
    <g id="Clouds" transform="translate(-46.904 295.5)">
      <g transform="matrix(1, 0, 0, 1, 46.9, -295.5)" filter="url(#Union_5)">
        <path id="Union_5-2" data-name="Union 5" d="M-5940.526,23042.465q-10.137.9-20.518.908a228.826,228.826,0,0,1-67.269-10.045,215.547,215.547,0,0,1-143.657,54.521,216.394,216.394,0,0,1-63.98-9.6,268.243,268.243,0,0,1-181.419,70.256,268.6,268.6,0,0,1-214.507-106.5,231.287,231.287,0,0,1-25.164,1.369,228.826,228.826,0,0,1-67.269-10.045,215.558,215.558,0,0,1-143.658,54.521,216.461,216.461,0,0,1-63.986-9.6,268.243,268.243,0,0,1-181.419,70.256c-148.41,0-268.725-119.932-268.725-267.871s120.315-267.871,268.725-267.871a268.092,268.092,0,0,1,167.936,58.74,216.063,216.063,0,0,1,77.47-14.262,217.888,217.888,0,0,1,43.356,4.334,227.912,227.912,0,0,1,167.57-73.072,227.634,227.634,0,0,1,136.1,44.877,268.644,268.644,0,0,1,103.566-20.617,268.1,268.1,0,0,1,167.936,58.74,216.058,216.058,0,0,1,77.464-14.262,217.843,217.843,0,0,1,43.356,4.334,227.921,227.921,0,0,1,167.57-73.072,227.624,227.624,0,0,1,134.318,43.564,268.679,268.679,0,0,1,100.357-19.3,268.1,268.1,0,0,1,167.936,58.74,216.034,216.034,0,0,1,77.464-14.262,217.843,217.843,0,0,1,43.356,4.334,227.921,227.921,0,0,1,167.57-73.072,227.639,227.639,0,0,1,136.854,45.436,229.134,229.134,0,0,1,63.928-9.045c126.014,0,228.168,101.828,228.168,227.436s-102.154,227.438-228.168,227.438a227.641,227.641,0,0,1-136.854-45.437,229.106,229.106,0,0,1-63.928,9.047,228.826,228.826,0,0,1-67.269-10.045,215.547,215.547,0,0,1-143.657,54.521,216.462,216.462,0,0,1-63.986-9.6,268.217,268.217,0,0,1-181.414,70.256A268.6,268.6,0,0,1-5940.526,23042.465Z" transform="translate(7238.1 -22345.5)" fill="#560f9f"/>
      </g>
      <g transform="matrix(1, 0, 0, 1, 46.9, -295.5)" filter="url(#Union_4)">
        <path id="Union_4-2" data-name="Union 4" d="M-5291.237,23078.246a216.459,216.459,0,0,1-63.986,9.6,215.559,215.559,0,0,1-143.658-54.521,228.825,228.825,0,0,1-67.268,10.045q-10.37,0-20.515-.908a268.608,268.608,0,0,1-214.161,106.037,268.257,268.257,0,0,1-181.414-70.256,216.459,216.459,0,0,1-63.986,9.6,215.559,215.559,0,0,1-143.658-54.521,228.825,228.825,0,0,1-67.268,10.045,231.323,231.323,0,0,1-25.166-1.369,268.608,268.608,0,0,1-214.506,106.5,268.272,268.272,0,0,1-181.419-70.256,216.459,216.459,0,0,1-63.986,9.6,215.559,215.559,0,0,1-143.658-54.521,228.815,228.815,0,0,1-67.262,10.045,229.145,229.145,0,0,1-63.934-9.047,227.615,227.615,0,0,1-136.855,45.438c-126.008,0-228.163-101.83-228.163-227.437s102.155-227.436,228.163-227.436a229.109,229.109,0,0,1,63.928,9.045,227.641,227.641,0,0,1,136.86-45.436,227.9,227.9,0,0,1,167.563,73.072,217.891,217.891,0,0,1,43.356-4.334,216.063,216.063,0,0,1,77.47,14.262,268.093,268.093,0,0,1,167.936-58.74,268.679,268.679,0,0,1,103.565,20.617,227.649,227.649,0,0,1,136.106-44.877,227.919,227.919,0,0,1,167.569,73.072,217.847,217.847,0,0,1,43.356-4.334,216.008,216.008,0,0,1,77.464,14.262,268.105,268.105,0,0,1,167.936-58.74,268.688,268.688,0,0,1,100.358,19.3,227.622,227.622,0,0,1,134.317-43.564,227.919,227.919,0,0,1,167.569,73.072,217.847,217.847,0,0,1,43.356-4.334,216.031,216.031,0,0,1,77.464,14.262,268.105,268.105,0,0,1,167.936-58.74c148.416,0,268.73,119.932,268.73,267.871s-120.315,267.871-268.73,267.871A268.257,268.257,0,0,1-5291.237,23078.246Z" transform="translate(7238.1 -22188.5)" fill="#6e20be"/>
      </g>
      <g transform="matrix(1, 0, 0, 1, 46.9, -295.5)" filter="url(#Union_3)">
        <path id="Union_3-2" data-name="Union 3" d="M-5940.526,23042.465q-10.137.9-20.518.908a228.826,228.826,0,0,1-67.269-10.045,215.547,215.547,0,0,1-143.657,54.521,216.394,216.394,0,0,1-63.98-9.6,268.243,268.243,0,0,1-181.419,70.256,268.6,268.6,0,0,1-214.507-106.5,231.287,231.287,0,0,1-25.164,1.369,228.826,228.826,0,0,1-67.269-10.045,215.558,215.558,0,0,1-143.658,54.521,216.461,216.461,0,0,1-63.986-9.6,268.243,268.243,0,0,1-181.419,70.256c-148.41,0-268.725-119.932-268.725-267.871s120.315-267.871,268.725-267.871a268.092,268.092,0,0,1,167.936,58.74,216.063,216.063,0,0,1,77.47-14.262,217.888,217.888,0,0,1,43.356,4.334,227.912,227.912,0,0,1,167.57-73.072,227.634,227.634,0,0,1,136.1,44.877,268.644,268.644,0,0,1,103.566-20.617,268.1,268.1,0,0,1,167.936,58.74,216.058,216.058,0,0,1,77.464-14.262,217.843,217.843,0,0,1,43.356,4.334,227.921,227.921,0,0,1,167.57-73.072,227.624,227.624,0,0,1,134.318,43.564,268.679,268.679,0,0,1,100.357-19.3,268.1,268.1,0,0,1,167.936,58.74,216.034,216.034,0,0,1,77.464-14.262,217.843,217.843,0,0,1,43.356,4.334,227.921,227.921,0,0,1,167.57-73.072,227.639,227.639,0,0,1,136.854,45.436,229.134,229.134,0,0,1,63.928-9.045c126.014,0,228.168,101.828,228.168,227.436s-102.154,227.438-228.168,227.438a227.641,227.641,0,0,1-136.854-45.437,229.106,229.106,0,0,1-63.928,9.047,228.826,228.826,0,0,1-67.269-10.045,215.547,215.547,0,0,1-143.657,54.521,216.462,216.462,0,0,1-63.986-9.6,268.217,268.217,0,0,1-181.414,70.256A268.6,268.6,0,0,1-5940.526,23042.465Z" transform="translate(7238.1 -22033.5)" fill="#9349de"/>
      </g>
      <rect id="Area" width="1920" height="1186" transform="translate(46.904 586.5)" fill="#9349de"/>
    </g>
  </g>
</svg>
