<svg xmlns="http://www.w3.org/2000/svg" width="44" height="44" viewBox="0 0 44 44">
  <g id="icon_deals" transform="translate(-536 -129)">
    <path id="Path_1" data-name="Path 1" d="M104.113,49.795h44v44h-44Z" transform="translate(431.887 79.205)" fill="none"/>
    <path id="Path_2" data-name="Path 2" d="M126.113,62.866l1.778,4.2.862,2.035,2.2.183,4.528.385-3.447,2.988-1.668,1.449.495,2.163,1.027,4.418L128,78.34l-1.888-1.174L124.224,78.3l-3.886,2.347,1.026-4.419.5-2.163-1.668-1.448-3.447-2.989,4.529-.385,2.2-.183.861-2.035,1.779-4.162m0-9.405-5.152,12.155-13.182,1.119,10.01,8.671-3.006,12.889,11.33-6.839,11.33,6.839-3.007-12.889,10.01-8.671-13.182-1.119Z" transform="translate(432.221 80.539)" fill="#5e16a7"/>
  </g>
</svg>
