<svg id="Google_Play" data-name="Google Play" xmlns="http://www.w3.org/2000/svg" xmlns:xlink="http://www.w3.org/1999/xlink" width="298.016" height="88.301" viewBox="0 0 298.016 88.301">
  <defs>
    <linearGradient id="linear-gradient" x1="0.5" y1="-0.003" x2="0.5" y2="0.993" gradientUnits="objectBoundingBox">
      <stop offset="0" stop-color="#267caf"/>
      <stop offset="0.286" stop-color="#4a92b4"/>
      <stop offset="0.767" stop-color="#79bcba"/>
      <stop offset="1" stop-color="#88cebc"/>
    </linearGradient>
    <linearGradient id="linear-gradient-2" x1="0.638" y1="0.141" x2="0.339" y2="0.948" gradientUnits="objectBoundingBox">
      <stop offset="0" stop-color="#f48879"/>
      <stop offset="0.119" stop-color="#f5907a"/>
      <stop offset="0.713" stop-color="#fbb777"/>
      <stop offset="1" stop-color="#fdc874"/>
    </linearGradient>
    <linearGradient id="linear-gradient-3" x1="0.866" y1="0.172" x2="0.048" y2="1.029" gradientUnits="objectBoundingBox">
      <stop offset="0" stop-color="#eb413d"/>
      <stop offset="0.167" stop-color="#d94452"/>
      <stop offset="0.575" stop-color="#af487a"/>
      <stop offset="0.862" stop-color="#954b92"/>
      <stop offset="1" stop-color="#894a9c"/>
    </linearGradient>
    <linearGradient id="linear-gradient-4" x1="0.106" y1="0.073" x2="0.888" y2="0.85" gradientUnits="objectBoundingBox">
      <stop offset="0" stop-color="#54c0ac"/>
      <stop offset="1" stop-color="#dde79a"/>
    </linearGradient>
  </defs>
  <path id="Path_7401" data-name="Path 7401" d="M451.867,380.514a8.458,8.458,0,0,1-8.459,8.457H166.272a8.469,8.469,0,0,1-8.479-8.457V313.071a8.481,8.481,0,0,1,8.479-8.468H443.4a8.467,8.467,0,0,1,8.468,8.466v0l0,67.443Z" transform="translate(-155.827 -302.638)" fill="#fff"/>
  <path id="Path_7402" data-name="Path 7402" d="M439.316,386.857H162.19a10.446,10.446,0,0,1-10.445-10.425V308.992a10.453,10.453,0,0,1,10.445-10.436H439.314a10.457,10.457,0,0,1,10.445,10.436v67.441a10.445,10.445,0,0,1-10.443,10.425Z" transform="translate(-151.745 -298.556)" fill="#a6a5a5"/>
  <path id="Path_7403" data-name="Path 7403" d="M451.867,380.514a8.458,8.458,0,0,1-8.459,8.457H166.272a8.469,8.469,0,0,1-8.479-8.457V313.071a8.481,8.481,0,0,1,8.479-8.468H443.4a8.467,8.467,0,0,1,8.468,8.466v0l0,67.443Z" transform="translate(-155.827 -302.638)" fill="#010101"/>
  <path id="Path_7404" data-name="Path 7404" d="M728.264,298.556H579.827l58.14,88.3h90.3a10.452,10.452,0,0,0,10.445-10.431V308.992A10.455,10.455,0,0,0,728.264,298.556Z" transform="translate(-440.693 -298.556)" fill="#fff" opacity="0.1"/>
  <g id="Group_1402" data-name="Group 1402" transform="translate(31.21 17.209)">
    <path id="Path_7405" data-name="Path 7405" d="M448.846,365.893a5.881,5.881,0,0,1-1.511,4.317,6.716,6.716,0,1,1-4.748-11.44,5.749,5.749,0,0,1,2.59.648,4.7,4.7,0,0,1,1.943,1.511l-1.079,1.079a4.024,4.024,0,0,0-3.453-1.511,4.3,4.3,0,0,0-3.454,1.511,5.211,5.211,0,0,0,0,7.339,5.557,5.557,0,0,0,3.454,1.511,4.733,4.733,0,0,0,3.669-1.511,3.573,3.573,0,0,0,1.079-2.59h-4.748v-1.727h6.259v.864Zm9.929-5.4h-5.828v4.1h5.4v1.511h-5.4v4.1h5.828v1.726H451.22v-12.95h7.554Zm7.123,11.44H464.17V360.5H460.5v-1.511h9.065V360.5H465.9Zm9.929,0v-12.95h1.727v12.95Zm9.065,0h-1.727V360.5H479.5v-1.511h8.85V360.5h-3.669v11.44ZM505.4,370.21a6.775,6.775,0,1,1,1.943-4.749A6.347,6.347,0,0,1,505.4,370.21Zm-8.2-1.079a5.1,5.1,0,0,0,3.454,1.511,4.294,4.294,0,0,0,3.453-1.511,5.206,5.206,0,0,0,1.511-3.669,4.446,4.446,0,0,0-1.511-3.669,5.093,5.093,0,0,0-3.453-1.511,4.3,4.3,0,0,0-3.454,1.511,5.207,5.207,0,0,0-1.511,3.669A4.447,4.447,0,0,0,497.194,369.131Zm12.519,2.806v-12.95h1.943l6.26,10.144V358.986h1.727v12.95h-1.727l-6.691-10.576v10.576Z" transform="translate(-374.751 -356.408)" fill="#fff"/>
    <path id="Path_7406" data-name="Path 7406" d="M492.18,428.015A9.081,9.081,0,0,0,482.9,437.3a9.213,9.213,0,0,0,9.282,9.281,9.081,9.081,0,0,0,9.281-9.281A8.955,8.955,0,0,0,492.18,428.015Zm0,14.677a5.63,5.63,0,0,1,0-11.224c2.806,0,5.18,2.158,5.18,5.612A5.358,5.358,0,0,1,492.18,442.692Zm-20.073-14.677a9.081,9.081,0,0,0-9.282,9.281,9.213,9.213,0,0,0,9.282,9.281,9.081,9.081,0,0,0,9.281-9.281A8.955,8.955,0,0,0,472.106,428.015Zm0,14.677a5.63,5.63,0,0,1,0-11.224c2.806,0,5.18,2.158,5.18,5.612A5.358,5.358,0,0,1,472.106,442.692Zm-23.959-11.872v3.885h9.281a8.162,8.162,0,0,1-2.158,4.964,9.554,9.554,0,0,1-7.123,2.806A10.049,10.049,0,0,1,438,432.116a10.182,10.182,0,0,1,10.145-10.361,10.7,10.7,0,0,1,7.123,2.806l2.806-2.806a13.831,13.831,0,0,0-9.713-3.885,14.247,14.247,0,1,0,0,28.491c4.317,0,7.339-1.295,9.929-4.1a12.994,12.994,0,0,0,3.454-9.065,8.1,8.1,0,0,0-.216-2.374Zm97.993,3.022c-.864-2.158-3.022-5.828-7.771-5.828s-8.634,3.669-8.634,9.281a9.033,9.033,0,0,0,9.065,9.281,8.855,8.855,0,0,0,7.555-4.1l-3.022-2.158a5.261,5.261,0,0,1-4.533,2.59,4.684,4.684,0,0,1-4.533-2.806l12.3-5.18-.432-1.079Zm-12.519,3.022a5.243,5.243,0,0,1,4.748-5.4,3.818,3.818,0,0,1,3.454,1.942l-8.2,3.454Zm-10.144,8.85h4.1v-26.98h-4.1ZM517,429.957a7.107,7.107,0,0,0-4.965-2.158,9.274,9.274,0,0,0-8.85,9.281,8.937,8.937,0,0,0,8.85,9.065,6.2,6.2,0,0,0,4.749-2.158H517v1.3c0,3.453-1.943,5.4-4.965,5.4a4.8,4.8,0,0,1-4.533-3.238l-3.453,1.511a8.9,8.9,0,0,0,8.2,5.4c4.749,0,8.633-2.806,8.633-9.5v-16.4H517v1.511Zm-4.749,12.735a5.63,5.63,0,0,1,0-11.224c2.806,0,4.964,2.374,4.964,5.612S515.059,442.692,512.253,442.692Zm52.665-23.959h-9.713v26.98h4.1V435.569h5.612c4.533,0,8.85-3.238,8.85-8.418S569.451,418.734,564.919,418.734Zm.216,12.951h-5.828V422.4h5.828a4.741,4.741,0,0,1,4.749,4.533,4.939,4.939,0,0,1-4.749,4.749Zm24.822-3.885c-3.022,0-6.043,1.295-7.123,4.1l3.669,1.511a3.813,3.813,0,0,1,3.669-1.942,4.056,4.056,0,0,1,4.317,3.453v.216a8.562,8.562,0,0,0-4.1-1.079c-3.885,0-7.771,2.158-7.771,6.043,0,3.669,3.238,6.044,6.691,6.044a6.073,6.073,0,0,0,5.18-2.59h.216v2.158h3.885V435.353c-.432-4.749-4.1-7.554-8.634-7.554Zm-.432,14.893c-1.295,0-3.237-.648-3.237-2.374,0-2.158,2.374-2.806,4.317-2.806a8.342,8.342,0,0,1,3.669.864A5.027,5.027,0,0,1,589.525,442.692Zm22.663-14.246L607.656,440.1h-.216l-4.748-11.655h-4.317l7.123,16.4-4.1,9.065h4.1l11.008-25.47h-4.317Zm-36.261,17.268h4.1v-26.98h-4.1Z" transform="translate(-373.406 -396.3)" fill="#fff"/>
    <g id="Group_1401" data-name="Group 1401">
      <path id="Path_7407" data-name="Path 7407" d="M248.634,353.686a4.221,4.221,0,0,0-.863,3.022v47.7a4.269,4.269,0,0,0,1.079,3.022l.216.216,26.765-26.764v-.432Z" transform="translate(-247.771 -352.977)" fill="url(#linear-gradient)"/>
      <path id="Path_7408" data-name="Path 7408" d="M342.289,427.153l-8.85-8.85v-.648l8.85-8.85.216.216,10.576,6.044c3.022,1.727,3.022,4.533,0,6.26Z" transform="translate(-305.595 -390.182)" fill="url(#linear-gradient-2)"/>
      <path id="Path_7409" data-name="Path 7409" d="M286.473,445.763l-9.065-9.065-26.98,26.981c1.079,1.079,2.59,1.079,4.533.216l31.513-18.131" transform="translate(-249.564 -409.008)" fill="url(#linear-gradient-3)"/>
      <path id="Path_7410" data-name="Path 7410" d="M286.473,370.128,254.96,352.213c-1.943-1.079-3.453-.863-4.533.216l26.98,26.765,9.065-9.065Z" transform="translate(-249.564 -351.503)" fill="url(#linear-gradient-4)"/>
    </g>
  </g>
</svg>
