<svg id="App_Store" data-name="App Store" xmlns="http://www.w3.org/2000/svg" width="298.016" height="88.301" viewBox="0 0 298.016 88.301">
  <path id="Path_7394" data-name="Path 7394" d="M451.867,711.048a8.458,8.458,0,0,1-8.46,8.457H166.272a8.469,8.469,0,0,1-8.479-8.457V643.605a8.481,8.481,0,0,1,8.479-8.468H443.4a8.467,8.467,0,0,1,8.468,8.466v0l0,67.443Z" transform="translate(-155.827 -633.172)" fill="#fff"/>
  <path id="Path_7395" data-name="Path 7395" d="M439.316,717.392H162.19a10.446,10.446,0,0,1-10.445-10.425V639.527a10.452,10.452,0,0,1,10.445-10.436H439.314a10.456,10.456,0,0,1,10.445,10.436v67.441a10.444,10.444,0,0,1-10.443,10.425Z" transform="translate(-151.745 -629.091)" fill="#a6a5a5"/>
  <path id="Path_7396" data-name="Path 7396" d="M451.867,711.048a8.458,8.458,0,0,1-8.46,8.457H166.272a8.469,8.469,0,0,1-8.479-8.457V643.605a8.481,8.481,0,0,1,8.479-8.468H443.4a8.467,8.467,0,0,1,8.468,8.466v0l0,67.443Z" transform="translate(-155.827 -633.172)" fill="#010101"/>
  <path id="Path_7397" data-name="Path 7397" d="M728.264,629.091H579.827l58.14,88.3h90.3a10.452,10.452,0,0,0,10.445-10.431V639.527A10.454,10.454,0,0,0,728.264,629.091Z" transform="translate(-440.693 -629.091)" fill="#fff" opacity="0.1"/>
  <path id="Path_7398" data-name="Path 7398" d="M285.251,706.524c-.063-6.961,5.7-10.347,5.964-10.5a12.827,12.827,0,0,0-10.1-5.46c-4.249-.447-8.37,2.542-10.535,2.542-2.208,0-5.541-2.5-9.133-2.425a13.448,13.448,0,0,0-11.319,6.9c-4.9,8.472-1.244,20.922,3.446,27.77,2.346,3.356,5.087,7.1,8.675,6.967,3.511-.143,4.822-2.235,9.058-2.235,4.2,0,5.429,2.235,9.088,2.151,3.768-.058,6.139-3.369,8.4-6.753a27.677,27.677,0,0,0,3.843-7.824,12.112,12.112,0,0,1-7.388-11.131Zm-6.912-20.469a12.321,12.321,0,0,0,2.821-8.831,12.556,12.556,0,0,0-8.118,4.2,11.724,11.724,0,0,0-2.895,8.5c3.069.229,6.221-1.548,8.191-3.872Z" transform="translate(-216.582 -661.581)" fill="#fff"/>
  <g id="Group_1398" data-name="Group 1398" transform="translate(95.243 38.593)">
    <path id="Path_7399" data-name="Path 7399" d="M469.056,777H464.15l-2.687-8.442h-9.341L449.562,777h-4.776l9.256-28.74h5.716l9.3,28.74Zm-8.4-11.984-2.43-7.5q-.386-1.15-1.449-5.414h-.086q-.428,1.834-1.365,5.414l-2.389,7.5Zm32.161,1.367q0,5.287-2.873,8.356a8.425,8.425,0,0,1-6.39,2.73q-4.118,0-5.919-2.939V785.4h-4.605V763.086q0-3.321-.171-6.811h4.05l.257,3.285h.086a8.194,8.194,0,0,1,13.114-.814,11.458,11.458,0,0,1,2.45,7.636Zm-4.692.169a8.544,8.544,0,0,0-1.365-4.991,4.719,4.719,0,0,0-4.009-2.045,4.789,4.789,0,0,0-3.091,1.129,5.237,5.237,0,0,0-1.812,2.965,6,6,0,0,0-.214,1.4v3.458a5.542,5.542,0,0,0,1.387,3.818,4.6,4.6,0,0,0,3.6,1.557,4.72,4.72,0,0,0,4.05-2A8.82,8.82,0,0,0,488.121,766.55Zm28.534-.169q0,5.287-2.873,8.356a8.43,8.43,0,0,1-6.392,2.73q-4.118,0-5.919-2.939V785.4h-4.606V763.086q0-3.321-.171-6.811h4.05L501,759.56h.086a8.2,8.2,0,0,1,13.116-.814,11.468,11.468,0,0,1,2.45,7.636Zm-4.694.169a8.542,8.542,0,0,0-1.367-4.991,4.711,4.711,0,0,0-4-2.045,4.81,4.81,0,0,0-3.1,1.129,5.234,5.234,0,0,0-1.81,2.965,6.148,6.148,0,0,0-.216,1.4v3.458a5.562,5.562,0,0,0,1.385,3.818,4.614,4.614,0,0,0,3.608,1.557,4.716,4.716,0,0,0,4.05-2A8.82,8.82,0,0,0,511.961,766.55Zm31.351,2.386a7.676,7.676,0,0,1-2.556,5.971q-2.806,2.514-7.83,2.516a13.673,13.673,0,0,1-7.444-1.79l1.065-3.838a12.815,12.815,0,0,0,6.653,1.792,6.277,6.277,0,0,0,4.05-1.173,3.83,3.83,0,0,0,1.454-3.131,4.012,4.012,0,0,0-1.2-2.944,11.093,11.093,0,0,0-3.966-2.216q-7.55-2.815-7.552-8.232a7.267,7.267,0,0,1,2.666-5.8,10.542,10.542,0,0,1,7.059-2.261,13.953,13.953,0,0,1,6.526,1.365l-1.155,3.754a11.413,11.413,0,0,0-5.524-1.322,5.617,5.617,0,0,0-3.81,1.194,3.416,3.416,0,0,0-1.156,2.6,3.52,3.52,0,0,0,1.324,2.814,14.92,14.92,0,0,0,4.178,2.216,14.167,14.167,0,0,1,5.459,3.494,7.282,7.282,0,0,1,1.756,4.984Zm15.266-9.206H553.5v10.062q0,3.839,2.687,3.835a8.1,8.1,0,0,0,2.046-.214l.127,3.5a10.439,10.439,0,0,1-3.582.51,5.521,5.521,0,0,1-4.266-1.665q-1.533-1.665-1.536-5.587V759.721h-3.024v-3.455h3.024v-3.794l4.524-1.365v5.159h5.076v3.464Zm22.859,6.736a11.367,11.367,0,0,1-2.73,7.846,9.734,9.734,0,0,1-7.591,3.155,9.278,9.278,0,0,1-7.273-3.024,11.021,11.021,0,0,1-2.709-7.632,11.274,11.274,0,0,1,2.793-7.887,9.684,9.684,0,0,1,7.53-3.071,9.474,9.474,0,0,1,7.334,3.028,10.877,10.877,0,0,1,2.646,7.584Zm-4.774.106a9.278,9.278,0,0,0-1.233-4.889,4.56,4.56,0,0,0-4.139-2.469,4.625,4.625,0,0,0-4.223,2.469,9.431,9.431,0,0,0-1.236,4.976,9.251,9.251,0,0,0,1.236,4.892,4.724,4.724,0,0,0,8.323-.041,9.315,9.315,0,0,0,1.272-4.937Zm19.75-6.248a8.029,8.029,0,0,0-1.452-.127,4.348,4.348,0,0,0-3.755,1.836,6.915,6.915,0,0,0-1.149,4.093V777h-4.605V762.8q.006-3.263-.134-6.524h4.011l.168,3.965h.127a7.11,7.11,0,0,1,2.3-3.285,5.57,5.57,0,0,1,3.329-1.11,7.4,7.4,0,0,1,1.151.084l0,4.393Zm20.6,5.332a10.784,10.784,0,0,1-.169,2.088H603.025a6.009,6.009,0,0,0,2,4.695,6.856,6.856,0,0,0,4.519,1.447,15.286,15.286,0,0,0,5.591-.978l.722,3.194a17.283,17.283,0,0,1-6.949,1.281,10.076,10.076,0,0,1-7.573-2.833,10.475,10.475,0,0,1-2.75-7.61,11.87,11.87,0,0,1,2.562-7.8,8.828,8.828,0,0,1,7.248-3.324,7.726,7.726,0,0,1,6.785,3.324,11.182,11.182,0,0,1,1.828,6.518Zm-4.392-1.194a6.23,6.23,0,0,0-.895-3.539A4.021,4.021,0,0,0,608.056,759a4.366,4.366,0,0,0-3.666,1.877,6.878,6.878,0,0,0-1.363,3.581l9.591,0Z" transform="translate(-444.786 -747.833)" fill="#fff"/>
  </g>
  <g id="Group_1399" data-name="Group 1399" transform="translate(97.939 16.37)">
    <path id="Path_7400" data-name="Path 7400" d="M456.393,694.441a29.376,29.376,0,0,1-3.312-.169V680.377a25.1,25.1,0,0,1,3.9-.294c5.282,0,7.714,2.6,7.714,6.833C464.694,691.8,461.821,694.441,456.393,694.441Zm.773-12.576a9.247,9.247,0,0,0-1.823.147v10.563a12.025,12.025,0,0,0,1.53.062c3.46,0,5.431-1.97,5.431-5.658C462.3,683.69,460.521,681.865,457.166,681.865Zm15.108,12.681c-2.977,0-4.905-2.222-4.905-5.239,0-3.144,1.97-5.386,5.074-5.386,2.933,0,4.906,2.117,4.906,5.22,0,3.183-2.033,5.405-5.074,5.405Zm.086-8.971c-1.635,0-2.683,1.529-2.683,3.667,0,2.1,1.069,3.626,2.662,3.626S475,691.233,475,689.2c0-2.073-1.048-3.624-2.64-3.624Zm21.962-1.445-3.186,10.185h-2.076l-1.32-4.423a33.56,33.56,0,0,1-.819-3.289h-.043a22.05,22.05,0,0,1-.816,3.289l-1.4,4.423h-2.1l-3-10.185h2.326l1.154,4.842q.409,1.73.691,3.27h.043a33.536,33.536,0,0,1,.838-3.248l1.447-4.861h1.845l1.385,4.758c.335,1.153.607,2.285.819,3.354h.06a29.3,29.3,0,0,1,.691-3.354l1.238-4.758,2.223,0Zm11.73,10.185h-2.264v-5.848c0-1.8-.691-2.7-2.054-2.7a2.351,2.351,0,0,0-2.264,2.494v6.058h-2.264v-7.274c0-.9-.021-1.866-.084-2.913h1.992l.106,1.572h.062a3.66,3.66,0,0,1,3.23-1.779c2.139,0,3.543,1.635,3.543,4.3l0,6.1Zm6.243,0H510.03V679.457H512.3Zm8.254.231c-2.975,0-4.905-2.222-4.905-5.239,0-3.144,1.97-5.386,5.072-5.386,2.936,0,4.906,2.117,4.906,5.22,0,3.183-2.033,5.405-5.072,5.405Zm.085-8.971c-1.635,0-2.683,1.529-2.683,3.667,0,2.1,1.072,3.626,2.659,3.626s2.661-1.635,2.661-3.669c0-2.073-1.043-3.624-2.637-3.624Zm13.914,8.74-.164-1.173h-.061a3.477,3.477,0,0,1-2.979,1.4,2.962,2.962,0,0,1-3.121-3c0-2.514,2.18-3.814,5.953-3.814v-.188c0-1.341-.711-2.013-2.115-2.013a4.769,4.769,0,0,0-2.662.756l-.46-1.488a6.51,6.51,0,0,1,3.5-.881c2.662,0,4.005,1.4,4.005,4.213v3.751a15.4,15.4,0,0,0,.147,2.432l-2.041,0Zm-.311-5.073c-2.515,0-3.776.609-3.776,2.054a1.443,1.443,0,0,0,1.553,1.592,2.168,2.168,0,0,0,2.223-2.073Zm13.2,5.073-.106-1.635h-.063a3.415,3.415,0,0,1-3.27,1.866c-2.456,0-4.275-2.159-4.275-5.2,0-3.185,1.886-5.429,4.461-5.429a3.061,3.061,0,0,1,2.873,1.384h.045v-5.846h2.266V691.57c0,.985.024,1.907.084,2.745Zm-.335-5.993a2.464,2.464,0,0,0-2.385-2.641c-1.678,0-2.7,1.488-2.7,3.583,0,2.054,1.065,3.46,2.659,3.46a2.542,2.542,0,0,0,2.43-2.7v-1.7Zm16.633,6.224c-2.974,0-4.9-2.222-4.9-5.239,0-3.144,1.97-5.386,5.072-5.386,2.936,0,4.906,2.117,4.906,5.22,0,3.183-2.03,5.405-5.074,5.405Zm.084-8.971c-1.633,0-2.681,1.529-2.681,3.667,0,2.1,1.069,3.626,2.659,3.626s2.661-1.635,2.661-3.669c0-2.073-1.043-3.624-2.64-3.624Zm17.165,8.74h-2.266v-5.848c0-1.8-.691-2.7-2.054-2.7a2.349,2.349,0,0,0-2.261,2.494v6.058h-2.266v-7.274c0-.9-.022-1.866-.084-2.913h1.991l.106,1.572h.063a3.658,3.658,0,0,1,3.227-1.782c2.139,0,3.545,1.635,3.545,4.3Zm15.231-8.487h-2.491v4.945c0,1.259.437,1.887,1.318,1.887a4.477,4.477,0,0,0,1-.106l.063,1.719a5.019,5.019,0,0,1-1.756.253c-1.784,0-2.851-.985-2.851-3.563v-5.136h-1.486v-1.7H591.5v-1.866l2.223-.672v2.535h2.491v1.7Zm11.985,8.487h-2.262v-5.8c0-1.823-.689-2.745-2.054-2.745a2.22,2.22,0,0,0-2.266,2.41v6.14h-2.262V679.457h2.262v6.118h.045a3.435,3.435,0,0,1,3.063-1.657c2.156,0,3.473,1.676,3.473,4.339v6.058Zm12.279-4.548h-6.794a2.923,2.923,0,0,0,3.21,3.017,7.648,7.648,0,0,0,2.745-.482l.352,1.572a8.508,8.508,0,0,1-3.418.628c-3.186,0-5.072-2.013-5.072-5.133s1.931-5.47,4.817-5.47c2.6,0,4.236,1.929,4.236,4.842a4.359,4.359,0,0,1-.078,1.026Zm-2.076-1.613c0-1.572-.793-2.682-2.24-2.682a2.685,2.685,0,0,0-2.476,2.682Z" transform="translate(-453.081 -679.457)" fill="#fff"/>
  </g>
</svg>
