<svg id="add_a_photo-24px" xmlns="http://www.w3.org/2000/svg" width="32" height="32" viewBox="0 0 32 32">
  <rect id="Rectangle_826" data-name="Rectangle 826" width="32" height="32" fill="none"/>
  <path id="Path_875" data-name="Path 875" d="M4,5V1H6.667V5h4V7.667h-4v4H4v-4H0V5Zm4,8V9h4V5h9.333l2.44,2.667H28a2.675,2.675,0,0,1,2.667,2.667v16A2.675,2.675,0,0,1,28,29H6.667A2.675,2.675,0,0,1,4,26.333V13Zm9.333,12a6.667,6.667,0,1,0-6.667-6.667A6.669,6.669,0,0,0,17.333,25Zm-4.267-6.667a4.267,4.267,0,1,0,4.267-4.267A4.262,4.262,0,0,0,13.067,18.333Z" transform="translate(0 0.333)" fill="#6318af"/>
</svg>
