<svg xmlns="http://www.w3.org/2000/svg" xmlns:xlink="http://www.w3.org/1999/xlink" width="1920" height="1081" viewBox="0 0 1920 1081">
  <defs>
    <clipPath id="clip-path">
      <rect id="Rectangle_2151" data-name="Rectangle 2151" width="1920" height="1081" fill="#fff"/>
    </clipPath>
  </defs>
  <g id="Background_Grey" data-name="Background Grey" clip-path="url(#clip-path)">
    <g id="Group_1548" data-name="Group 1548" transform="translate(-10241.809 2093.761)">
      <g id="Group_1538" data-name="Group 1538" transform="translate(10208.572 -1544.502)">
        <circle id="Ellipse_957" data-name="Ellipse 957" cx="211" cy="211" r="211" transform="translate(0.236 18.741)" fill="#f8f8f8"/>
        <circle id="Ellipse_958" data-name="Ellipse 958" cx="169.5" cy="169.5" r="169.5" transform="translate(235.236 53.741)" fill="#f8f8f8"/>
        <ellipse id="Ellipse_959" data-name="Ellipse 959" cx="179.5" cy="179" rx="179.5" ry="179" transform="translate(390.236 -0.259)" fill="#f8f8f8"/>
        <ellipse id="Ellipse_960" data-name="Ellipse 960" cx="179.5" cy="178.5" rx="179.5" ry="178.5" transform="translate(548.236 28.741)" fill="#f8f8f8"/>
      </g>
      <g id="Group_1539" data-name="Group 1539" transform="translate(10751.107 -1544.502)">
        <ellipse id="Ellipse_961" data-name="Ellipse 961" cx="211.5" cy="211" rx="211.5" ry="211" transform="translate(-0.299 18.741)" fill="#f8f8f8"/>
        <circle id="Ellipse_962" data-name="Ellipse 962" cx="169.5" cy="169.5" r="169.5" transform="translate(233.701 53.741)" fill="#f8f8f8"/>
        <circle id="Ellipse_963" data-name="Ellipse 963" cx="179" cy="179" r="179" transform="translate(389.701 -0.259)" fill="#f8f8f8"/>
        <ellipse id="Ellipse_964" data-name="Ellipse 964" cx="179" cy="178.5" rx="179" ry="178.5" transform="translate(547.701 28.741)" fill="#f8f8f8"/>
      </g>
      <g id="Group_1540" data-name="Group 1540" transform="translate(11289.268 -1544.502)">
        <ellipse id="Ellipse_965" data-name="Ellipse 965" cx="211.5" cy="211" rx="211.5" ry="211" transform="translate(-0.459 18.741)" fill="#f8f8f8"/>
        <circle id="Ellipse_966" data-name="Ellipse 966" cx="169.5" cy="169.5" r="169.5" transform="translate(234.541 53.741)" fill="#f8f8f8"/>
        <circle id="Ellipse_967" data-name="Ellipse 967" cx="179" cy="179" r="179" transform="translate(390.541 -0.259)" fill="#f8f8f8"/>
        <ellipse id="Ellipse_968" data-name="Ellipse 968" cx="179.5" cy="178.5" rx="179.5" ry="178.5" transform="translate(547.541 28.741)" fill="#f8f8f8"/>
      </g>
      <g id="Group_1541" data-name="Group 1541" transform="translate(10208.572 -1472.31)">
        <ellipse id="Ellipse_969" data-name="Ellipse 969" cx="211.5" cy="211" rx="211.5" ry="211" transform="translate(484.236 19.549)" fill="#f4f4f4"/>
        <circle id="Ellipse_970" data-name="Ellipse 970" cx="169.5" cy="169.5" r="169.5" transform="translate(333.236 54.549)" fill="#f4f4f4"/>
        <ellipse id="Ellipse_971" data-name="Ellipse 971" cx="179" cy="179.5" rx="179" ry="179.5" transform="translate(158.236 -0.451)" fill="#f4f4f4"/>
        <ellipse id="Ellipse_972" data-name="Ellipse 972" cx="179.5" cy="179" rx="179.5" ry="179" transform="translate(0.236 29.549)" fill="#f4f4f4"/>
      </g>
      <g id="Group_1542" data-name="Group 1542" transform="translate(11000.499 -1472.31)">
        <circle id="Ellipse_973" data-name="Ellipse 973" cx="211" cy="211" r="211" transform="translate(484.309 19.549)" fill="#f4f4f4"/>
        <circle id="Ellipse_974" data-name="Ellipse 974" cx="169.5" cy="169.5" r="169.5" transform="translate(333.309 54.549)" fill="#f4f4f4"/>
        <circle id="Ellipse_975" data-name="Ellipse 975" cx="179.5" cy="179.5" r="179.5" transform="translate(157.309 -0.451)" fill="#f4f4f4"/>
        <circle id="Ellipse_976" data-name="Ellipse 976" cx="179" cy="179" r="179" transform="translate(0.309 29.549)" fill="#f4f4f4"/>
      </g>
      <g id="Group_1543" data-name="Group 1543" transform="translate(11289.268 -1472.31)">
        <circle id="Ellipse_977" data-name="Ellipse 977" cx="211" cy="211" r="211" transform="translate(484.541 19.549)" fill="#f4f4f4"/>
        <circle id="Ellipse_978" data-name="Ellipse 978" cx="169.5" cy="169.5" r="169.5" transform="translate(332.541 54.549)" fill="#f4f4f4"/>
        <circle id="Ellipse_979" data-name="Ellipse 979" cx="179.5" cy="179.5" r="179.5" transform="translate(157.541 -0.451)" fill="#f4f4f4"/>
        <ellipse id="Ellipse_980" data-name="Ellipse 980" cx="179.5" cy="179" rx="179.5" ry="179" transform="translate(-0.459 29.549)" fill="#f4f4f4"/>
      </g>
      <g id="Group_1547" data-name="Group 1547" transform="translate(10208.572 -1409.962)">
        <g id="Group_1544" data-name="Group 1544" transform="translate(0 0)">
          <ellipse id="Ellipse_981" data-name="Ellipse 981" cx="211" cy="211.5" rx="211" ry="211.5" transform="translate(0.236 19.201)" fill="#efefef"/>
          <ellipse id="Ellipse_982" data-name="Ellipse 982" cx="169.5" cy="170" rx="169.5" ry="170" transform="translate(235.236 54.201)" fill="#efefef"/>
          <circle id="Ellipse_983" data-name="Ellipse 983" cx="179.5" cy="179.5" r="179.5" transform="translate(390.236 0.201)" fill="#efefef"/>
          <ellipse id="Ellipse_984" data-name="Ellipse 984" cx="179.5" cy="179" rx="179.5" ry="179" transform="translate(548.236 29.201)" fill="#efefef"/>
        </g>
        <g id="Group_1545" data-name="Group 1545" transform="translate(542.535 0)">
          <circle id="Ellipse_985" data-name="Ellipse 985" cx="211.5" cy="211.5" r="211.5" transform="translate(-0.299 19.201)" fill="#efefef"/>
          <ellipse id="Ellipse_986" data-name="Ellipse 986" cx="169.5" cy="170" rx="169.5" ry="170" transform="translate(233.701 54.201)" fill="#efefef"/>
          <ellipse id="Ellipse_987" data-name="Ellipse 987" cx="179" cy="179.5" rx="179" ry="179.5" transform="translate(389.701 0.201)" fill="#efefef"/>
          <circle id="Ellipse_988" data-name="Ellipse 988" cx="179" cy="179" r="179" transform="translate(547.701 29.201)" fill="#efefef"/>
        </g>
        <g id="Group_1546" data-name="Group 1546" transform="translate(1080.695 0)">
          <circle id="Ellipse_989" data-name="Ellipse 989" cx="211.5" cy="211.5" r="211.5" transform="translate(-0.459 19.201)" fill="#efefef"/>
          <ellipse id="Ellipse_990" data-name="Ellipse 990" cx="169.5" cy="170" rx="169.5" ry="170" transform="translate(234.541 54.201)" fill="#efefef"/>
          <ellipse id="Ellipse_991" data-name="Ellipse 991" cx="179" cy="179.5" rx="179" ry="179.5" transform="translate(390.541 0.201)" fill="#efefef"/>
          <ellipse id="Ellipse_992" data-name="Ellipse 992" cx="179.5" cy="179" rx="179.5" ry="179" transform="translate(547.541 29.201)" fill="#efefef"/>
        </g>
        <rect id="Rectangle_2150" data-name="Rectangle 2150" width="1987" height="212" transform="translate(0.236 184.201)" fill="#efefef"/>
      </g>
    </g>
  </g>
</svg>
