<svg xmlns="http://www.w3.org/2000/svg" xmlns:xlink="http://www.w3.org/1999/xlink" width="1920" height="1080" viewBox="0 0 1920 1080">
  <defs>
    <clipPath id="clip-path">
      <rect id="Area" width="1920" height="1080" fill="#6318af"/>
    </clipPath>
    <clipPath id="clip-path-2">
      <rect id="Area-2" data-name="Area" width="1920" height="569" transform="translate(46.904 -109.5)" fill="#fff"/>
    </clipPath>
    <filter id="Union_23" x="-174.002" y="215.998" width="2600.998" height="620.002" filterUnits="userSpaceOnUse">
      <feOffset dy="3" input="SourceAlpha"/>
      <feGaussianBlur stdDeviation="10" result="blur"/>
      <feFlood flood-opacity="0.102"/>
      <feComposite operator="in" in2="blur"/>
      <feComposite in="SourceGraphic"/>
    </filter>
    <clipPath id="clip-path-3">
      <rect id="Area-3" data-name="Area" width="1920" height="569" transform="translate(46.904 -39.5)" fill="#fff"/>
    </clipPath>
    <filter id="Union_26" x="-174.002" y="372.998" width="2600.998" height="620.002" filterUnits="userSpaceOnUse">
      <feOffset dy="3" input="SourceAlpha"/>
      <feGaussianBlur stdDeviation="10" result="blur-2"/>
      <feFlood flood-opacity="0.102"/>
      <feComposite operator="in" in2="blur-2"/>
      <feComposite in="SourceGraphic"/>
    </filter>
    <clipPath id="clip-path-4">
      <rect id="Rectangle_2149" data-name="Rectangle 2149" width="1920" height="853" transform="translate(46.904 -68.5)" fill="#fff"/>
    </clipPath>
    <filter id="Union_28" x="-174.002" y="527.998" width="2600.998" height="620.002" filterUnits="userSpaceOnUse">
      <feOffset dy="3" input="SourceAlpha"/>
      <feGaussianBlur stdDeviation="10" result="blur-3"/>
      <feFlood flood-opacity="0.102"/>
      <feComposite operator="in" in2="blur-3"/>
      <feComposite in="SourceGraphic"/>
    </filter>
  </defs>
  <g id="background_begin" clip-path="url(#clip-path)">
    <rect id="Area-4" data-name="Area" width="1920" height="1080" fill="#6318af"/>
    <g id="Clouds" transform="translate(-46.904 295.5)">
      <g id="Cloud_03" data-name="Cloud 03" clip-path="url(#clip-path-2)">
        <g id="Group_1529" data-name="Group 1529">
          <g transform="matrix(1, 0, 0, 1, 46.9, -295.5)" filter="url(#Union_23)">
            <path id="Union_23-2" data-name="Union 23" d="M-18219.523,17078.467q-10.143.9-20.52.908a228.837,228.837,0,0,1-67.268-10.047,215.536,215.536,0,0,1-143.658,54.52,216.435,216.435,0,0,1-63.982-9.6,268.262,268.262,0,0,1-181.418,70.254,268.6,268.6,0,0,1-214.508-106.494,231.312,231.312,0,0,1-25.166,1.369,228.85,228.85,0,0,1-67.27-10.047,215.531,215.531,0,0,1-143.656,54.52,216.435,216.435,0,0,1-63.982-9.6,268.263,268.263,0,0,1-181.42,70.254c-148.412,0-268.725-119.928-268.725-267.873s120.313-267.867,268.725-267.867a268.129,268.129,0,0,1,167.939,58.738,216.057,216.057,0,0,1,77.463-14.26,217.6,217.6,0,0,1,43.357,4.336,227.894,227.894,0,0,1,167.568-73.076,227.581,227.581,0,0,1,136.1,44.881,268.715,268.715,0,0,1,103.572-20.619,268.128,268.128,0,0,1,167.938,58.738,216.057,216.057,0,0,1,77.463-14.26,217.587,217.587,0,0,1,43.357,4.336,227.9,227.9,0,0,1,167.568-73.076,227.6,227.6,0,0,1,134.314,43.566,268.673,268.673,0,0,1,100.355-19.3,268.113,268.113,0,0,1,167.939,58.738,216.078,216.078,0,0,1,77.467-14.26,217.548,217.548,0,0,1,43.354,4.336,227.913,227.913,0,0,1,167.568-73.076,227.62,227.62,0,0,1,136.857,45.439,228.9,228.9,0,0,1,63.928-9.049c126.012,0,228.162,101.828,228.162,227.436s-102.15,227.441-228.162,227.441a227.632,227.632,0,0,1-136.852-45.439,229.112,229.112,0,0,1-63.934,9.049,228.811,228.811,0,0,1-67.264-10.047,215.544,215.544,0,0,1-143.658,54.52,216.432,216.432,0,0,1-63.986-9.6,268.249,268.249,0,0,1-181.42,70.254A268.588,268.588,0,0,1-18219.523,17078.467Z" transform="translate(19517.09 -16381.5)" fill="#560f9f"/>
          </g>
          <rect id="Rectangle_2141" data-name="Rectangle 2141" width="1920" height="447" transform="translate(46.904 76.5)" fill="#560f9f"/>
        </g>
      </g>
      <g id="Cloud_02" data-name="Cloud 02" clip-path="url(#clip-path-3)">
        <g id="Group_1533" data-name="Group 1533">
          <g transform="matrix(1, 0, 0, 1, 46.9, -295.5)" filter="url(#Union_26)">
            <path id="Union_26-2" data-name="Union 26" d="M-17570.238,17114.246a216.465,216.465,0,0,1-63.988,9.6,215.531,215.531,0,0,1-143.656-54.52,228.811,228.811,0,0,1-67.264,10.047q-10.374,0-20.52-.908a268.6,268.6,0,0,1-214.154,106.033,268.245,268.245,0,0,1-181.42-70.254,216.435,216.435,0,0,1-63.982,9.6,215.558,215.558,0,0,1-143.662-54.52,228.791,228.791,0,0,1-67.264,10.047,231.285,231.285,0,0,1-25.166-1.369,268.6,268.6,0,0,1-214.508,106.494,268.24,268.24,0,0,1-181.418-70.254,216.435,216.435,0,0,1-63.982,9.6,215.55,215.55,0,0,1-143.662-54.52,228.791,228.791,0,0,1-67.264,10.047,229.054,229.054,0,0,1-63.93-9.049,227.641,227.641,0,0,1-136.852,45.439c-126.012,0-228.166-101.828-228.166-227.441s102.154-227.436,228.166-227.436a228.958,228.958,0,0,1,63.928,9.049,227.6,227.6,0,0,1,136.854-45.439,227.9,227.9,0,0,1,167.568,73.076,217.558,217.558,0,0,1,43.357-4.336,216.057,216.057,0,0,1,77.463,14.26,268.128,268.128,0,0,1,167.938-58.738,268.694,268.694,0,0,1,103.568,20.617,227.634,227.634,0,0,1,136.105-44.879,227.894,227.894,0,0,1,167.568,73.076,217.558,217.558,0,0,1,43.357-4.336,216.057,216.057,0,0,1,77.463,14.26,268.129,268.129,0,0,1,167.939-58.738,268.691,268.691,0,0,1,100.357,19.3,227.62,227.62,0,0,1,134.316-43.566,227.891,227.891,0,0,1,167.563,73.076,217.645,217.645,0,0,1,43.357-4.336,216.1,216.1,0,0,1,77.469,14.26,268.1,268.1,0,0,1,167.934-58.738c148.414,0,268.727,119.928,268.727,267.867s-120.312,267.873-268.727,267.873A268.245,268.245,0,0,1-17570.238,17114.246Z" transform="translate(19517.09 -16224.5)" fill="#6e20be"/>
          </g>
          <rect id="Rectangle_2148" data-name="Rectangle 2148" width="1920" height="492" transform="translate(46.904 292.5)" fill="#6e20be"/>
        </g>
      </g>
      <g id="Cloud_01" data-name="Cloud 01" clip-path="url(#clip-path-4)">
        <g transform="matrix(1, 0, 0, 1, 46.9, -295.5)" filter="url(#Union_28)">
          <path id="Union_28-2" data-name="Union 28" d="M-19517.094,17184.5v-30.539c-85.605-44.795-144-134.268-144-237.334,0-147.939,120.313-267.867,268.725-267.867a268.129,268.129,0,0,1,167.939,58.738,216.057,216.057,0,0,1,77.463-14.26,217.89,217.89,0,0,1,43.357,4.336,227.894,227.894,0,0,1,167.568-73.076,227.6,227.6,0,0,1,136.1,44.883,268.7,268.7,0,0,1,103.572-20.621,268.128,268.128,0,0,1,167.938,58.738,216.057,216.057,0,0,1,77.463-14.26,217.876,217.876,0,0,1,43.357,4.336,227.9,227.9,0,0,1,167.568-73.076,227.6,227.6,0,0,1,134.316,43.57,268.619,268.619,0,0,1,100.354-19.309,268.113,268.113,0,0,1,167.939,58.738,216.078,216.078,0,0,1,77.467-14.26,217.836,217.836,0,0,1,43.354,4.336,227.913,227.913,0,0,1,167.568-73.076,227.62,227.62,0,0,1,136.857,45.439,228.9,228.9,0,0,1,63.928-9.049c126.012,0,228.162,101.828,228.162,227.436s-102.15,227.441-228.162,227.441a227.632,227.632,0,0,1-136.852-45.439,228.969,228.969,0,0,1-63.934,9.049,229.765,229.765,0,0,1-48.051-5.055v110.18Z" transform="translate(19517.09 -16069.5)" fill="#9349de"/>
        </g>
      </g>
    </g>
  </g>
</svg>
